<?xml version="1.0" standalone="no"?>
<!DOCTYPE svg PUBLIC "-//W3C//DTD SVG 20010904//EN"
 "http://www.w3.org/TR/2001/REC-SVG-20010904/DTD/svg10.dtd">
<svg version="1.0" xmlns="http://www.w3.org/2000/svg"
 width="130.000000pt" height="130.000000pt" viewBox="0 0 130.000000 130.000000"
 preserveAspectRatio="xMidYMid meet">

<g transform="translate(0.000000,130.000000) scale(0.100000,-0.100000)"
fill="#000000" stroke="none">
<path d="M100 996 c11 -11 272 -174 359 -224 10 -6 6 -18 -19 -59 -69 -110
-59 -199 30 -276 60 -51 132 -70 243 -65 103 5 188 31 253 77 l41 28 93 -43
c51 -24 96 -44 99 -44 5 0 -110 78 -148 99 -10 6 -6 19 23 60 40 59 51 101 43
167 -16 147 -231 226 -439 161 -46 -15 -100 -38 -121 -53 l-39 -26 -136 70
c-174 89 -301 147 -282 128z m924 -241 c18 -17 26 -34 26 -58 0 -37 -32 -87
-56 -87 -12 0 -11 5 5 26 36 45 24 90 -32 124 l-32 20 31 0 c19 0 41 -9 58
-25z"/>
</g>
</svg>
